<mxfile host="app.diagrams.net" modified="2023-04-10T07:50:53.063Z" agent="Mozilla/5.0 (Macintosh; Intel Mac OS X 10_15_7) AppleWebKit/537.36 (KHTML, like Gecko) Chrome/111.0.0.0 Safari/537.36" etag="ZSmP0_OWQNkLlztAmqX9" version="21.1.5" type="device">
  <diagram name="Page-1" id="4DkizfUiRQXE5far4hzq">
    <mxGraphModel dx="1026" dy="692" grid="1" gridSize="10" guides="1" tooltips="1" connect="1" arrows="1" fold="1" page="1" pageScale="1" pageWidth="850" pageHeight="1100" math="0" shadow="1">
      <root>
        <mxCell id="0" />
        <mxCell id="1" parent="0" />
        <mxCell id="ZQ_kA6Eb0KY1lvP0p--b-26" style="edgeStyle=orthogonalEdgeStyle;rounded=0;orthogonalLoop=1;jettySize=auto;html=1;exitX=0.5;exitY=1;exitDx=0;exitDy=0;" edge="1" parent="1" source="ZQ_kA6Eb0KY1lvP0p--b-1" target="ZQ_kA6Eb0KY1lvP0p--b-25">
          <mxGeometry relative="1" as="geometry" />
        </mxCell>
        <mxCell id="ZQ_kA6Eb0KY1lvP0p--b-1" value="" style="whiteSpace=wrap;html=1;" vertex="1" parent="1">
          <mxGeometry x="240" y="80" width="360" height="400" as="geometry" />
        </mxCell>
        <mxCell id="ZQ_kA6Eb0KY1lvP0p--b-30" style="edgeStyle=orthogonalEdgeStyle;rounded=0;orthogonalLoop=1;jettySize=auto;html=1;exitX=0.5;exitY=1;exitDx=0;exitDy=0;entryX=0.75;entryY=0;entryDx=0;entryDy=0;" edge="1" parent="1" source="ZQ_kA6Eb0KY1lvP0p--b-2" target="ZQ_kA6Eb0KY1lvP0p--b-25">
          <mxGeometry relative="1" as="geometry" />
        </mxCell>
        <mxCell id="ZQ_kA6Eb0KY1lvP0p--b-2" value="" style="whiteSpace=wrap;html=1;" vertex="1" parent="1">
          <mxGeometry x="640" y="400" width="160" height="80" as="geometry" />
        </mxCell>
        <mxCell id="ZQ_kA6Eb0KY1lvP0p--b-31" style="edgeStyle=orthogonalEdgeStyle;rounded=0;orthogonalLoop=1;jettySize=auto;html=1;exitX=0.5;exitY=1;exitDx=0;exitDy=0;entryX=0.25;entryY=0;entryDx=0;entryDy=0;" edge="1" parent="1" source="ZQ_kA6Eb0KY1lvP0p--b-3" target="ZQ_kA6Eb0KY1lvP0p--b-25">
          <mxGeometry relative="1" as="geometry" />
        </mxCell>
        <mxCell id="ZQ_kA6Eb0KY1lvP0p--b-3" value="" style="whiteSpace=wrap;html=1;" vertex="1" parent="1">
          <mxGeometry x="40" y="400" width="160" height="80" as="geometry" />
        </mxCell>
        <mxCell id="ZQ_kA6Eb0KY1lvP0p--b-4" value="&lt;font style=&quot;font-size: 14px;&quot;&gt;&lt;b&gt;Module&lt;/b&gt;&lt;/font&gt;" style="text;html=1;strokeColor=none;fillColor=none;align=center;verticalAlign=middle;whiteSpace=wrap;rounded=0;" vertex="1" parent="1">
          <mxGeometry x="90" y="425" width="60" height="30" as="geometry" />
        </mxCell>
        <mxCell id="ZQ_kA6Eb0KY1lvP0p--b-7" value="&lt;font style=&quot;font-size: 14px;&quot;&gt;&lt;b&gt;Module&lt;/b&gt;&lt;/font&gt;" style="text;html=1;strokeColor=none;fillColor=none;align=center;verticalAlign=middle;whiteSpace=wrap;rounded=0;" vertex="1" parent="1">
          <mxGeometry x="690" y="425" width="60" height="30" as="geometry" />
        </mxCell>
        <mxCell id="ZQ_kA6Eb0KY1lvP0p--b-8" value="&lt;font style=&quot;font-size: 14px;&quot;&gt;&lt;b&gt;Module&lt;/b&gt;&lt;/font&gt;" style="text;html=1;strokeColor=none;fillColor=none;align=center;verticalAlign=middle;whiteSpace=wrap;rounded=0;" vertex="1" parent="1">
          <mxGeometry x="390" y="100" width="60" height="30" as="geometry" />
        </mxCell>
        <mxCell id="ZQ_kA6Eb0KY1lvP0p--b-50" style="edgeStyle=orthogonalEdgeStyle;rounded=0;orthogonalLoop=1;jettySize=auto;html=1;exitX=0.5;exitY=1;exitDx=0;exitDy=0;entryX=0.5;entryY=0;entryDx=0;entryDy=0;" edge="1" parent="1" source="ZQ_kA6Eb0KY1lvP0p--b-44" target="ZQ_kA6Eb0KY1lvP0p--b-12">
          <mxGeometry relative="1" as="geometry" />
        </mxCell>
        <mxCell id="ZQ_kA6Eb0KY1lvP0p--b-10" value="&lt;font style=&quot;font-size: 14px;&quot;&gt;.dto.ts&lt;/font&gt;" style="rounded=0;whiteSpace=wrap;html=1;" vertex="1" parent="1">
          <mxGeometry x="495" y="140" width="80" height="40" as="geometry" />
        </mxCell>
        <mxCell id="ZQ_kA6Eb0KY1lvP0p--b-33" style="edgeStyle=orthogonalEdgeStyle;rounded=0;orthogonalLoop=1;jettySize=auto;html=1;exitX=0.5;exitY=1;exitDx=0;exitDy=0;entryX=0.25;entryY=0;entryDx=0;entryDy=0;" edge="1" parent="1" source="ZQ_kA6Eb0KY1lvP0p--b-39" target="ZQ_kA6Eb0KY1lvP0p--b-15">
          <mxGeometry relative="1" as="geometry" />
        </mxCell>
        <mxCell id="ZQ_kA6Eb0KY1lvP0p--b-47" style="edgeStyle=orthogonalEdgeStyle;rounded=0;orthogonalLoop=1;jettySize=auto;html=1;exitX=1;exitY=0.5;exitDx=0;exitDy=0;entryX=0;entryY=0.5;entryDx=0;entryDy=0;" edge="1" parent="1" source="ZQ_kA6Eb0KY1lvP0p--b-11" target="ZQ_kA6Eb0KY1lvP0p--b-13">
          <mxGeometry relative="1" as="geometry" />
        </mxCell>
        <mxCell id="ZQ_kA6Eb0KY1lvP0p--b-11" value="&lt;font style=&quot;font-size: 14px;&quot;&gt;.repository.ts&lt;/font&gt;" style="rounded=0;whiteSpace=wrap;html=1;" vertex="1" parent="1">
          <mxGeometry x="250" y="270" width="100" height="40" as="geometry" />
        </mxCell>
        <mxCell id="ZQ_kA6Eb0KY1lvP0p--b-34" style="edgeStyle=orthogonalEdgeStyle;rounded=0;orthogonalLoop=1;jettySize=auto;html=1;exitX=0.5;exitY=1;exitDx=0;exitDy=0;entryX=0.75;entryY=0;entryDx=0;entryDy=0;" edge="1" parent="1" source="ZQ_kA6Eb0KY1lvP0p--b-39" target="ZQ_kA6Eb0KY1lvP0p--b-15">
          <mxGeometry relative="1" as="geometry" />
        </mxCell>
        <mxCell id="ZQ_kA6Eb0KY1lvP0p--b-12" value="&lt;font style=&quot;font-size: 14px;&quot;&gt;.controller.ts&lt;/font&gt;" style="rounded=0;whiteSpace=wrap;html=1;" vertex="1" parent="1">
          <mxGeometry x="490" y="270" width="90" height="40" as="geometry" />
        </mxCell>
        <mxCell id="ZQ_kA6Eb0KY1lvP0p--b-22" style="edgeStyle=orthogonalEdgeStyle;rounded=0;orthogonalLoop=1;jettySize=auto;html=1;exitX=0.5;exitY=1;exitDx=0;exitDy=0;" edge="1" parent="1" source="ZQ_kA6Eb0KY1lvP0p--b-39" target="ZQ_kA6Eb0KY1lvP0p--b-15">
          <mxGeometry relative="1" as="geometry" />
        </mxCell>
        <mxCell id="ZQ_kA6Eb0KY1lvP0p--b-48" style="edgeStyle=orthogonalEdgeStyle;rounded=0;orthogonalLoop=1;jettySize=auto;html=1;exitX=1;exitY=0.5;exitDx=0;exitDy=0;entryX=0;entryY=0.5;entryDx=0;entryDy=0;" edge="1" parent="1" source="ZQ_kA6Eb0KY1lvP0p--b-13" target="ZQ_kA6Eb0KY1lvP0p--b-12">
          <mxGeometry relative="1" as="geometry" />
        </mxCell>
        <mxCell id="ZQ_kA6Eb0KY1lvP0p--b-13" value="&lt;font style=&quot;font-size: 14px;&quot;&gt;.service.ts&lt;/font&gt;" style="rounded=0;whiteSpace=wrap;html=1;" vertex="1" parent="1">
          <mxGeometry x="376.25" y="270" width="87.5" height="40" as="geometry" />
        </mxCell>
        <mxCell id="ZQ_kA6Eb0KY1lvP0p--b-24" style="edgeStyle=orthogonalEdgeStyle;rounded=0;orthogonalLoop=1;jettySize=auto;html=1;exitX=0.5;exitY=1;exitDx=0;exitDy=0;entryX=0.5;entryY=1;entryDx=0;entryDy=0;" edge="1" parent="1" source="ZQ_kA6Eb0KY1lvP0p--b-15" target="ZQ_kA6Eb0KY1lvP0p--b-1">
          <mxGeometry relative="1" as="geometry" />
        </mxCell>
        <mxCell id="ZQ_kA6Eb0KY1lvP0p--b-15" value="&lt;font style=&quot;font-size: 14px;&quot;&gt;.module.ts&lt;/font&gt;" style="rounded=0;whiteSpace=wrap;html=1;" vertex="1" parent="1">
          <mxGeometry x="380" y="430" width="80" height="40" as="geometry" />
        </mxCell>
        <mxCell id="ZQ_kA6Eb0KY1lvP0p--b-28" style="edgeStyle=orthogonalEdgeStyle;rounded=0;orthogonalLoop=1;jettySize=auto;html=1;exitX=0.5;exitY=1;exitDx=0;exitDy=0;" edge="1" parent="1" source="ZQ_kA6Eb0KY1lvP0p--b-25" target="ZQ_kA6Eb0KY1lvP0p--b-27">
          <mxGeometry relative="1" as="geometry" />
        </mxCell>
        <mxCell id="ZQ_kA6Eb0KY1lvP0p--b-25" value="&lt;font style=&quot;font-size: 14px;&quot;&gt;app.module.ts&lt;/font&gt;" style="rounded=0;whiteSpace=wrap;html=1;" vertex="1" parent="1">
          <mxGeometry x="360" y="520" width="120" height="40" as="geometry" />
        </mxCell>
        <mxCell id="ZQ_kA6Eb0KY1lvP0p--b-27" value="&lt;font style=&quot;font-size: 14px;&quot;&gt;main.ts&lt;/font&gt;" style="rounded=0;whiteSpace=wrap;html=1;" vertex="1" parent="1">
          <mxGeometry x="360" y="600" width="120" height="40" as="geometry" />
        </mxCell>
        <mxCell id="ZQ_kA6Eb0KY1lvP0p--b-40" value="" style="edgeStyle=orthogonalEdgeStyle;rounded=0;orthogonalLoop=1;jettySize=auto;html=1;exitX=0.5;exitY=1;exitDx=0;exitDy=0;" edge="1" parent="1" source="ZQ_kA6Eb0KY1lvP0p--b-13" target="ZQ_kA6Eb0KY1lvP0p--b-39">
          <mxGeometry relative="1" as="geometry">
            <mxPoint x="420" y="310" as="sourcePoint" />
            <mxPoint x="420" y="430" as="targetPoint" />
          </mxGeometry>
        </mxCell>
        <mxCell id="ZQ_kA6Eb0KY1lvP0p--b-41" value="" style="edgeStyle=orthogonalEdgeStyle;rounded=0;orthogonalLoop=1;jettySize=auto;html=1;exitX=0.5;exitY=1;exitDx=0;exitDy=0;entryX=0.75;entryY=0;entryDx=0;entryDy=0;" edge="1" parent="1" source="ZQ_kA6Eb0KY1lvP0p--b-12" target="ZQ_kA6Eb0KY1lvP0p--b-39">
          <mxGeometry relative="1" as="geometry">
            <mxPoint x="535" y="310" as="sourcePoint" />
            <mxPoint x="440" y="430" as="targetPoint" />
          </mxGeometry>
        </mxCell>
        <mxCell id="ZQ_kA6Eb0KY1lvP0p--b-42" value="" style="edgeStyle=orthogonalEdgeStyle;rounded=0;orthogonalLoop=1;jettySize=auto;html=1;exitX=0.5;exitY=1;exitDx=0;exitDy=0;entryX=0.25;entryY=0;entryDx=0;entryDy=0;" edge="1" parent="1" source="ZQ_kA6Eb0KY1lvP0p--b-11" target="ZQ_kA6Eb0KY1lvP0p--b-39">
          <mxGeometry relative="1" as="geometry">
            <mxPoint x="300" y="310" as="sourcePoint" />
            <mxPoint x="400" y="430" as="targetPoint" />
          </mxGeometry>
        </mxCell>
        <mxCell id="ZQ_kA6Eb0KY1lvP0p--b-39" value="@Injectable()" style="text;html=1;strokeColor=none;fillColor=none;align=center;verticalAlign=middle;whiteSpace=wrap;rounded=0;" vertex="1" parent="1">
          <mxGeometry x="390" y="380" width="60" height="30" as="geometry" />
        </mxCell>
        <mxCell id="ZQ_kA6Eb0KY1lvP0p--b-51" value="" style="edgeStyle=orthogonalEdgeStyle;rounded=0;orthogonalLoop=1;jettySize=auto;html=1;exitX=0.5;exitY=1;exitDx=0;exitDy=0;entryX=0.5;entryY=0;entryDx=0;entryDy=0;" edge="1" parent="1" source="ZQ_kA6Eb0KY1lvP0p--b-10" target="ZQ_kA6Eb0KY1lvP0p--b-44">
          <mxGeometry relative="1" as="geometry">
            <mxPoint x="535" y="180" as="sourcePoint" />
            <mxPoint x="535" y="270" as="targetPoint" />
          </mxGeometry>
        </mxCell>
        <mxCell id="ZQ_kA6Eb0KY1lvP0p--b-44" value="import" style="text;html=1;strokeColor=none;fillColor=none;align=center;verticalAlign=middle;whiteSpace=wrap;rounded=0;" vertex="1" parent="1">
          <mxGeometry x="467.5" y="210" width="135" height="30" as="geometry" />
        </mxCell>
        <mxCell id="ZQ_kA6Eb0KY1lvP0p--b-52" value="Service import Repository, Controller import Service" style="text;html=1;strokeColor=none;fillColor=none;align=center;verticalAlign=middle;whiteSpace=wrap;rounded=0;" vertex="1" parent="1">
          <mxGeometry x="335" y="230" width="170" height="30" as="geometry" />
        </mxCell>
      </root>
    </mxGraphModel>
  </diagram>
</mxfile>
